# xmcd
#
# Track frame offsets: 
#        150
#        14652
#        32942
#        51779
#        67953
#        84812
#        101686
#        119559
#        133585
#        152085
#        169673
#        186082
#        203839
#        217994
#        231010
#        245634
#        260972
#        284165
#
# Disc length: 4039 seconds
#
# Revision: 2
# Processed by: cddbd v1.5.1PL2 Copyright (c) Steve Scherf et al.
# Submitted via: ExactAudioCopy v0.90b4
#
DISCID=0c0fc512
DTITLE=Kenny Rogers - Buried Treasure (The Collection) - CD 1
DYEAR=2004
DGENRE=Country
TTITLE0=Fightin' For The Same Thing
TTITLE1=Tomb Of The Unknown Lover
TTITLE2=Buried Treasure
TTITLE3=If Only My Heart Had A Voice
TTITLE4=The Stranger
TTITLE5=Twenty Years Ago
TTITLE6=We're Doin' Alright
TTITLE7=Ol' Red
TTITLE8=I Don't Call Him Daddy
TTITLE9=Reason To Go
TTITLE10=Evening Star
TTITLE11=Make No Mistake, She's Mine
TTITLE12=If I Were You
TTITLE13=She's Ready For Someone To Love Her
TTITLE14=Missing You
TTITLE15=The Factory
TTITLE16=I Prefer The Moonlight
TTITLE17=Islands In The Stream
EXTD=
EXTT0=
EXTT1=
EXTT2=
EXTT3=
EXTT4=
EXTT5=
EXTT6=
EXTT7=
EXTT8=
EXTT9=
EXTT10=
EXTT11=
EXTT12=
EXTT13=
EXTT14=
EXTT15=
EXTT16=
EXTT17=
PLAYORDER=
